<svg width="109" height="54" viewBox="0 0 109 54" fill="none" xmlns="http://www.w3.org/2000/svg">
<path d="M54.5 30.375C61.9029 30.375 68.4429 32.13 73.7567 34.425C78.6617 36.585 81.75 41.445 81.75 46.71V54H27.25V46.755C27.25 41.445 30.3383 36.585 35.2433 34.47C40.5571 32.13 47.0971 30.375 54.5 30.375ZM18.1667 31.5C23.1625 31.5 27.25 27.45 27.25 22.5C27.25 17.55 23.1625 13.5 18.1667 13.5C13.1708 13.5 9.08334 17.55 9.08334 22.5C9.08334 27.45 13.1708 31.5 18.1667 31.5ZM23.2988 36.45C21.6183 36.18 19.9379 36 18.1667 36C13.6704 36 9.40125 36.945 5.54084 38.61C3.89544 39.3068 2.49303 40.4675 1.50792 41.9476C0.522804 43.4277 -0.00156091 45.162 3.49024e-06 46.935V54H20.4375V46.755C20.4375 43.02 21.4821 39.51 23.2988 36.45ZM90.8333 31.5C95.8292 31.5 99.9167 27.45 99.9167 22.5C99.9167 17.55 95.8292 13.5 90.8333 13.5C85.8375 13.5 81.75 17.55 81.75 22.5C81.75 27.45 85.8375 31.5 90.8333 31.5ZM109 46.935C109 43.29 106.82 40.05 103.459 38.61C99.4767 36.8882 95.1784 35.9997 90.8333 36C89.0621 36 87.3817 36.18 85.7012 36.45C87.5179 39.51 88.5625 43.02 88.5625 46.755V54H109V46.935ZM54.5 0C62.0392 0 68.125 6.03 68.125 13.5C68.125 20.97 62.0392 27 54.5 27C46.9608 27 40.875 20.97 40.875 13.5C40.875 6.03 46.9608 0 54.5 0Z" fill="#F7CE58"/>
</svg>
