<svg width="41" height="41" viewBox="0 0 41 41" fill="none" xmlns="http://www.w3.org/2000/svg">
<path d="M10.0936 35.3279C9.61692 35.3279 9.21738 35.1667 8.89494 34.8443C8.57251 34.5219 8.41129 34.1223 8.41129 33.6457V30.197C7.9066 29.6362 7.50005 29.0124 7.19163 28.3254C6.88321 27.6385 6.729 26.8885 6.729 26.0754V10.0937C6.729 7.76654 7.80847 6.06323 9.9674 4.98376C12.1263 3.9043 15.533 3.36456 20.1873 3.36456C25.0098 3.36456 28.4585 3.88327 30.5333 4.92068C32.6081 5.95808 33.6455 7.68242 33.6455 10.0937V26.0754C33.6455 26.8885 33.4913 27.6385 33.1829 28.3254C32.8745 29.0124 32.4679 29.6362 31.9633 30.197V33.6457C31.9633 34.1223 31.802 34.5219 31.4796 34.8443C31.1572 35.1667 30.7576 35.3279 30.281 35.3279H28.5987C28.122 35.3279 27.7225 35.1667 27.4001 34.8443C27.0776 34.5219 26.9164 34.1223 26.9164 33.6457V31.9634H13.4581V33.6457C13.4581 34.1223 13.2969 34.5219 12.9745 34.8443C12.652 35.1667 12.2525 35.3279 11.7759 35.3279H10.0936ZM10.0936 16.8228H30.281V11.776H10.0936V16.8228ZM14.2993 26.9165C15.0002 26.9165 15.596 26.6712 16.0867 26.1805C16.5774 25.6899 16.8227 25.0941 16.8227 24.3931C16.8227 23.6922 16.5774 23.0963 16.0867 22.6057C15.596 22.115 15.0002 21.8697 14.2993 21.8697C13.5983 21.8697 13.0025 22.115 12.5119 22.6057C12.0212 23.0963 11.7759 23.6922 11.7759 24.3931C11.7759 25.0941 12.0212 25.6899 12.5119 26.1805C13.0025 26.6712 13.5983 26.9165 14.2993 26.9165ZM26.0753 26.9165C26.7762 26.9165 27.372 26.6712 27.8627 26.1805C28.3534 25.6899 28.5987 25.0941 28.5987 24.3931C28.5987 23.6922 28.3534 23.0963 27.8627 22.6057C27.372 22.115 26.7762 21.8697 26.0753 21.8697C25.3743 21.8697 24.7785 22.115 24.2878 22.6057C23.7972 23.0963 23.5518 23.6922 23.5518 24.3931C23.5518 25.0941 23.7972 25.6899 24.2878 26.1805C24.7785 26.6712 25.3743 26.9165 26.0753 26.9165ZM10.8506 8.41141H29.6922C29.2716 7.93477 28.3674 7.53522 26.9795 7.21279C25.5916 6.89035 23.3556 6.72913 20.2714 6.72913C17.2713 6.72913 15.0773 6.90437 13.6895 7.25484C12.3016 7.60532 11.3553 7.99084 10.8506 8.41141ZM13.4581 28.5988H26.9164C27.8417 28.5988 28.6337 28.2694 29.2926 27.6105C29.9515 26.9516 30.281 26.1595 30.281 25.2342V20.1874H10.0936V25.2342C10.0936 26.1595 10.423 26.9516 11.0819 27.6105C11.7408 28.2694 12.5329 28.5988 13.4581 28.5988Z" fill="#F7CE58"/>
</svg>
