<svg width="26" height="36" viewBox="0 0 26 36" fill="none" xmlns="http://www.w3.org/2000/svg">
<path d="M16.7143 6.90537C19.9829 6.90537 23.14 7.31969 26 8.1023V1.10486C23.0657 0.414321 19.9086 0 16.7143 0C10.4 0 4.68 1.33504 0 3.82097V11.4629C4.19714 8.51662 10.0286 6.90537 16.7143 6.90537ZM0 16.0665V23.7084C4.19714 20.7621 10.0286 19.1509 16.7143 19.1509C19.9829 19.1509 23.14 19.5652 26 20.3478V13.3504C23.0657 12.6598 19.9086 12.2455 16.7143 12.2455C10.4 12.2455 4.68 13.6266 0 16.0665ZM16.7143 24.5371C10.4 24.5371 4.68 25.8721 0 28.3581V36C4.19714 33.0537 10.0286 31.4425 16.7143 31.4425C19.9829 31.4425 23.14 31.8568 26 32.6394V25.6419C23.0657 24.9054 19.9086 24.5371 16.7143 24.5371Z" fill="#F7CE58"/>
</svg>
