<svg width="51" height="90" viewBox="0 0 51 90" fill="none" xmlns="http://www.w3.org/2000/svg">
<path d="M27.1717 39.1708C15.9162 36.2454 12.2967 33.2208 12.2967 28.5104C12.2967 23.1058 17.3046 19.3375 25.6842 19.3375C34.51 19.3375 37.7825 23.5521 38.08 29.75H49.0379C48.6908 21.2217 43.4846 13.3875 33.1217 10.8588V0H18.2467V10.71C8.6275 12.7925 0.892499 19.04 0.892499 28.6096C0.892499 40.0633 10.3629 45.7654 24.1967 49.0875C36.5925 52.0625 39.0717 56.4258 39.0717 61.0371C39.0717 64.4583 36.6421 69.9125 25.6842 69.9125C15.47 69.9125 11.4538 65.3508 10.9083 59.5H0C0.595 70.3587 8.72667 76.4575 18.2467 78.4904V89.25H33.1217V78.5896C42.7904 76.755 50.4758 71.1521 50.4758 60.9875C50.4758 46.9058 38.4271 42.0962 27.1717 39.1708Z" fill="#F7CE58"/>
</svg>
