<svg width="91" height="71" viewBox="0 0 91 71" fill="none" xmlns="http://www.w3.org/2000/svg">
<path d="M82.7273 2.08824C78.1359 0.626471 73.0895 0 68.25 0C60.1841 0 51.4977 1.67059 45.5 6.26471C39.5023 1.67059 30.8159 0 22.75 0C14.6841 0 5.99773 1.67059 0 6.26471V67.45C0 68.4941 1.03409 69.5382 2.06818 69.5382C2.48182 69.5382 2.68864 69.3294 3.10227 69.3294C8.68636 66.6147 16.7523 64.7353 22.75 64.7353C30.8159 64.7353 39.5023 66.4059 45.5 71C51.0841 67.45 61.2182 64.7353 68.25 64.7353C75.075 64.7353 82.1068 65.9882 87.8977 69.1206C88.3114 69.3294 88.5182 69.3294 88.9318 69.3294C89.9659 69.3294 91 68.2853 91 67.2412V6.26471C88.5182 4.38529 85.8295 3.13235 82.7273 2.08824ZM82.7273 58.4706C78.1773 57.0088 73.2136 56.3824 68.25 56.3824C61.2182 56.3824 51.0841 59.0971 45.5 62.6471V14.6176C51.0841 11.0676 61.2182 8.35294 68.25 8.35294C73.2136 8.35294 78.1773 8.97941 82.7273 10.4412V58.4706Z" fill="#F7CE58"/>
</svg>
