<svg width="38" height="38" viewBox="0 0 38 38" fill="none" xmlns="http://www.w3.org/2000/svg">
<path d="M30.0833 12.6667V17.4167H9.23083L13.7908 12.8567C14.0869 12.5606 14.2532 12.1591 14.2532 11.7404C14.2532 11.3217 14.0869 10.9202 13.7908 10.6242C13.4948 10.3281 13.0933 10.1618 12.6746 10.1618C12.2559 10.1618 11.8544 10.3281 11.5583 10.6242L4.29083 17.8917C4.14405 18.0382 4.02759 18.2121 3.94814 18.4037C3.86869 18.5952 3.82779 18.8006 3.82779 19.0079C3.82779 19.2153 3.86869 19.4206 3.94814 19.6122C4.02759 19.8037 4.14405 19.9777 4.29083 20.1242L11.5583 27.3917C11.7049 27.5383 11.8789 27.6545 12.0705 27.7339C12.262 27.8132 12.4673 27.854 12.6746 27.854C12.8819 27.854 13.0872 27.8132 13.2787 27.7339C13.4702 27.6545 13.6442 27.5383 13.7908 27.3917C13.9374 27.2451 14.0537 27.0711 14.133 26.8795C14.2124 26.688 14.2532 26.4827 14.2532 26.2754C14.2532 26.0681 14.2124 25.8628 14.133 25.6713C14.0537 25.4798 13.9374 25.3058 13.7908 25.1592L9.23083 20.5833H31.6667C32.5375 20.5833 33.25 19.8708 33.25 19V12.6667C33.25 11.7958 32.5375 11.0833 31.6667 11.0833C30.7958 11.0833 30.0833 11.7958 30.0833 12.6667Z" fill="black"/>
</svg>
