<svg width="74" height="78" viewBox="0 0 74 78" fill="none" xmlns="http://www.w3.org/2000/svg">
<path d="M65.7778 52.78V0H32.8889V69.3333H16.4444V25.22C21.2133 23.4 24.6667 18.6333 24.6667 13C24.6667 5.80667 19.1578 0 12.3333 0C5.50889 0 0 5.80667 0 13C0 18.6333 3.45333 23.4 8.22222 25.22V78H41.1111V8.66667H57.5556V52.78C54.8177 53.8024 52.5107 55.8119 51.0421 58.4534C49.5736 61.0948 49.0379 64.1984 49.5298 67.2158C50.0217 70.2332 51.5094 72.9703 53.7302 74.9436C55.951 76.9169 58.762 77.9995 61.6667 78C68.4911 78 74 72.1933 74 65C74 59.3667 70.5467 54.6 65.7778 52.78Z" fill="#F7CE58"/>
</svg>
